# xmcd
#
# Track frame offsets: 
#        150
#        4848
#        20403
#        29266
#        42854
#        60283
#        76329
#        85745
#        99282
#        126500
#        138145
#        157983
#        167888
#        175510
#        190698
#        206454
#        216661
#        231913
#        243645
#        258495
#
# Disc length: 3626 seconds
#
# Revision: 0
# Processed by: cddbd v1.5.2PL0 Copyright (c) Steve Scherf et al.
# Submitted via: ExactAudioCopyFreeDBPlugin 1.0
#
DISCID=020e2814
DTITLE=Stefan Grossman - Fingerpicking Guitar Exercises and Hot Licks Le
DTITLE=sson 1
DYEAR=1999
DGENRE=Instructional
TTITLE0=Introduction and Tuning
TTITLE1=Finger Strengthening Exercises - Ex.01
TTITLE2=Finger Strengthening Exercises - Ex.02
TTITLE3=Finger Strengthening Exercises - Ex.03
TTITLE4=Finger Strengthening Exercises - Ex.04
TTITLE5=Finger Strengthening Exercises - Ex.05
TTITLE6=Finger Strengthening Exercises - Ex.06
TTITLE7=The Hammer-On And Pull-Off - Ex.01
TTITLE8=The Hammer-On And Pull-Off - Ex.02
TTITLE9=The Hammer-On And Pull-Off - Ex.03
TTITLE10=The Hammer-On And Pull-Off - Ex.04
TTITLE11=Single String Runs - Ex.01
TTITLE12=Single String Runs - Ex.02
TTITLE13=Single String Runs - Ex.03
TTITLE14=Single String Runs - Ex.04
TTITLE15=Single String Runs - Ex.05
TTITLE16=Counterpoint Lines - Ex.01
TTITLE17=Counterpoint Lines - Ex.02
TTITLE18=Counterpoint Lines - Ex.03
TTITLE19=Counterpoint Lines - Ex.04
EXTD=
EXTT0=
EXTT1=
EXTT2=
EXTT3=
EXTT4=
EXTT5=
EXTT6=
EXTT7=
EXTT8=
EXTT9=
EXTT10=
EXTT11=
EXTT12=
EXTT13=
EXTT14=
EXTT15=
EXTT16=
EXTT17=
EXTT18=
EXTT19=
PLAYORDER=
